<svg xmlns="http://www.w3.org/2000/svg" width="153" height="26" viewBox="0 0 153 26" fill="none">
    <g clip-path="url(#clip0_1992_15728)">
        <path
            d="M132.11 1.52624V25.8142H152.913V1.52624H132.11ZM146.103 10.5337L145.299 12.4102L144.495 12.1958L145.138 10.212L144.441 9.83669L143.905 11.3379L143.208 11.7132L143.423 12.7856L143.101 13.5898L143.423 14.2868L143.101 15.3055L143.262 15.9489C144.602 15.1447 145.514 14.9838 146.425 14.9838C147.229 14.9838 148.516 15.4663 149.213 16.1097V16.2706C148.248 16.0561 147.497 15.9489 146.961 15.9489C145.782 15.9489 144.87 16.3778 143.637 17.1284L145.728 18.6833L146.05 18.5761L146.318 17.7718H147.015C147.176 18.0935 147.229 18.5224 147.229 18.8978L146.532 19.3267L147.819 20.6135L147.926 19.7556H148.623C148.945 20.1845 149.106 20.6671 149.159 21.1496L148.194 21.793H147.497L145.674 20.0773L145.353 20.1309L145.138 20.9352C144.977 20.9888 144.656 20.9888 144.441 20.9352L144.227 19.9701L144.763 19.6484L143.423 18.6297C143.262 18.5224 143.101 18.3616 142.886 18.2544L143.208 17.611L143.154 17.5574C143.154 17.5574 142.028 18.3616 141.76 18.6297L140.42 19.6484L140.956 19.9701L140.742 21.096C140.527 21.1496 140.206 21.1496 140.045 21.096L139.83 20.2918L139.509 20.2382L137.686 21.9539H136.989L136.024 21.3105C136.024 20.8279 136.238 20.3454 136.56 19.9165H137.257L137.364 20.7743L138.651 19.4875L137.954 19.0586C137.9 18.6833 137.954 18.308 138.168 17.9327H138.865L139.133 18.7369L139.455 18.8441L141.546 17.2893C140.366 16.485 139.401 16.1097 138.222 16.1097C137.686 16.1097 136.935 16.217 135.97 16.4314V16.217C136.721 15.5736 138.007 15.091 138.758 15.091C139.669 15.091 140.527 15.2519 141.868 16.0561L142.028 15.4127L141.76 14.394L142.028 13.697L141.76 12.8928L142.028 11.8205L141.171 11.4452L140.634 9.94392L139.937 10.3192L140.581 12.303L139.777 12.5175L138.972 10.6409L138.275 10.9626L138.758 12.7319L138.061 13.3217L137.418 11.6596H137.257L136.721 13.7506L135.916 14.2332C135.916 10.6945 138.597 9.30053 141.492 8.65714L140.795 7.90652L139.401 8.92522L138.704 8.38906L140.045 6.99505L139.348 6.40528L137.954 8.01375L137.471 7.37036L138.329 6.1372L138.275 6.08358L136.452 6.72697L135.916 6.29805C136.828 5.70827 137.686 5.44019 138.436 5.44019C139.937 5.44019 141.278 6.29805 142.457 7.90652C143.637 6.24443 144.924 5.44019 146.371 5.44019C147.176 5.44019 148.248 5.76189 149.106 6.35166L148.516 6.72697L146.693 6.1372L146.639 6.19081L147.497 7.37036L147.015 8.01375L145.621 6.40528L144.924 6.99505L146.211 8.38906L145.514 8.92522L144.12 7.90652L143.423 8.65714C145.942 9.30053 149.106 10.6945 149.106 14.2332L148.194 13.7506L147.658 11.6596H147.551L146.908 13.3217L146.211 12.7319L146.693 10.9626L146.103 10.5337Z"
            fill="#121921" />
        <path
            d="M43.0535 5.54772L44.4475 6.94173L46.1096 5.33326L44.5011 3.67117L43.1071 5.06518L41.6594 3.67117L39.9974 5.33326L41.6594 6.99535L43.0535 5.54772Z"
            fill="#121921" />
        <path
            d="M37.6384 4.31434L39.5686 2.33055L39.4614 2.06247L19.2482 9.99761L17.3181 11.9278L17.4253 12.1959L37.6384 4.31434Z"
            fill="#121921" />
        <path d="M99.1357 7.0487L97.4736 8.71079L99.1357 10.3729L100.798 8.71079L99.1357 7.0487Z"
            fill="#121921" />
        <path
            d="M50.0772 8.33535L51.5249 9.78298L53.1869 8.12089L51.5249 6.4588L50.0772 7.90643L48.6296 6.4588L46.9675 8.12089L48.6296 9.78298L50.0772 8.33535Z"
            fill="#121921" />
        <path
            d="M74.0972 3.24174L75.4912 4.63575L77.1533 2.97366L75.4912 1.31157L74.0972 2.70559L72.7032 1.31157L71.0411 2.97366L72.7032 4.63575L74.0972 3.24174Z"
            fill="#121921" />
        <path d="M8.31046 0.132208L6.64837 1.7943L8.31046 3.45639L9.97255 1.7943L8.31046 0.132208Z"
            fill="#121921" />
        <path d="M50.0773 3.13494L48.4152 4.79702L50.0773 6.45912L51.7394 4.79702L50.0773 3.13494Z"
            fill="#121921" />
        <path
            d="M54.3129 3.99257V14.7157C54.0448 14.823 53.2942 14.9838 52.5972 14.9838C50.6134 14.9838 50.1845 14.1796 50.1845 13.4289C50.1845 13.0536 50.2381 12.5175 50.4525 11.3915H50.1309C49.5411 14.1796 48.6832 15.0374 46.6994 15.0374C46.1097 15.0374 45.4663 14.9838 44.8229 14.823C45.5199 13.8579 45.788 12.8928 45.788 11.4988C45.788 9.67584 44.7693 8.01375 43.4289 8.01375C41.3915 8.01375 39.8902 10.4265 39.8902 13.4826C39.8902 13.9651 40.1047 14.4476 40.4264 14.8766C36.0299 15.4663 31.2045 15.7344 26.0574 15.7344C16.2993 15.7344 15.3342 14.7157 15.3342 12.303V1.52624H15.0125L13.3504 4.04618V12.8928C13.3504 17.0212 15.924 18.6297 25.8429 18.6297C32.2768 18.6297 37.3167 18.0935 40.5872 17.2893L41.5523 16.0025C42.571 17.2357 44.1795 17.9327 45.6807 17.9327C46.6994 17.9327 47.6109 17.7182 48.1471 17.4501L49.3266 14.7693C49.273 17.0748 50.667 17.9863 52.1683 17.9863C53.0797 17.9863 53.9912 17.7718 54.6882 17.2893L56.3503 12.303V1.57986H56.0822L54.3129 3.99257ZM42.5174 10.8554C43.9114 10.8554 45.0373 12.6783 45.2518 13.3753C44.9301 13.8043 44.2331 14.1796 43.4289 14.4476C42.1421 13.9651 40.9625 13.2681 40.2119 12.303C40.48 11.8741 41.1234 10.8554 42.5174 10.8554Z"
            fill="#121921" />
        <path
            d="M6.48768 23.8843L5.04005 22.4367L3.37796 24.0988L5.04005 25.7609L6.48768 24.3669L7.88169 25.7609L9.54378 24.0988L7.88169 22.4367L6.48768 23.8843Z"
            fill="#121921" />
        <path
            d="M125.032 1.52619L123.316 3.99251V17.879H123.584L125.3 12.1957V1.47257H125.032V1.52619Z"
            fill="#121921" />
        <path
            d="M82.0323 6.1909C80.1557 6.1909 78.9225 8.44276 78.9225 10.8019C78.9225 12.6248 79.834 13.9652 81.4425 13.9652C82.4076 13.9652 82.9973 13.6435 83.4799 13.1073L84.016 11.1236C84.3377 11.6597 84.6058 12.1959 84.7667 12.6784C83.748 15.0375 80.531 16.6996 76.0273 17.9864V18.4689H82.7829C84.016 17.0213 85.2492 14.4477 85.2492 11.2844C85.142 8.44276 83.8016 6.1909 82.0323 6.1909ZM81.228 11.1772C80.0485 11.1772 79.1906 10.8019 79.1906 10.3729C79.1906 9.67593 80.0485 8.97892 81.1744 8.97892C82.0859 8.97892 82.9437 9.67593 83.5871 10.5874C82.9973 10.9627 82.1931 11.1772 81.228 11.1772Z"
            fill="#121921" />
        <path
            d="M119.188 3.99257V14.823C118.92 14.8766 118.277 14.9838 117.633 14.9838C117.043 14.9838 116.561 14.9302 116.186 14.823C116.614 13.9115 116.936 12.8392 116.936 11.7132C116.936 10.5873 115.328 8.54991 113.505 8.54991C110.609 8.54991 107.5 12.7319 105.73 14.823C104.712 14.4476 104.122 13.8043 104.444 12.6783L104.176 12.6247C103.479 14.4476 102.835 15.091 101.173 15.091C99.2429 15.091 99.0821 13.4289 99.3502 11.7132L99.0821 11.6596C98.4923 14.5013 97.9026 15.091 96.6694 15.091C94.8465 15.091 94.632 14.0723 93.4524 11.1235C92.112 7.69206 91.415 6.29805 91.0933 5.54742H90.9325L89.9138 8.1746C90.5572 9.30053 92.1657 12.4639 92.2193 13.3753C92.0584 13.8579 90.6644 15.1983 88.9487 15.1983C87.6083 15.1983 86.8041 14.6085 86.8041 13.3753C86.8041 13 86.8577 12.4102 86.9649 12.0349L86.6968 11.9277C86.536 12.2494 86.1071 13.4826 86.1071 15.0374C86.1071 16.5923 86.5896 18.1471 88.3589 18.1471C89.5921 18.1471 90.718 17.6646 91.3614 16.914L92.4337 13.5362C93.1844 16.8067 94.2031 18.0399 96.0796 18.0399C96.6694 18.0399 97.0983 17.8791 97.4736 17.5574L98.4387 14.7693C98.4387 17.0748 99.5646 18.0935 100.905 18.0935C101.602 18.0935 102.192 17.9327 102.621 17.611L103.639 14.823C103.8 16.5387 104.819 18.2008 107.768 18.2008C111.199 18.2008 114.47 17.1284 115.435 16.3778C115.917 17.4501 116.829 18.0399 117.794 18.0399C118.384 18.0399 118.974 17.8791 119.402 17.5574L121.065 12.3566V1.52624H120.797L119.188 3.99257ZM106.159 14.9302C107.446 13.8579 109.966 11.4988 112.379 11.4988C114.095 11.4988 115.489 12.6783 116.132 13.3753C115.06 14.0187 112.111 15.1983 108.358 15.1983C107.553 15.1983 106.803 15.1447 106.159 14.9302Z"
            fill="#121921" />
        <path
            d="M77.4213 11.1236C77.4213 8.17476 76.1345 5.81567 74.258 5.81567C72.3814 5.81567 71.1483 8.06753 71.1483 10.4802C71.1483 12.2496 72.0597 13.59 73.6682 13.59C74.5797 13.59 75.2231 13.2683 75.7056 12.7321L76.2418 10.7483C76.6171 11.3381 76.8851 11.8743 77.046 12.3032C76.1345 13.858 73.4001 15.5737 69.7006 15.5737C66.3228 15.5737 65.5186 13.6436 65.5186 12.0351C65.5186 10.3194 66.1084 8.71092 66.1084 8.71092L65.8403 8.60369C65.0897 10.1585 64.8216 12.0351 64.8216 13.6436C64.8216 15.7882 65.7867 18.5762 69.4326 18.5762C72.864 18.5762 75.5984 16.8605 76.7243 15.681C77.0996 14.4478 77.4213 12.6785 77.4213 11.1236ZM73.5074 10.8556C72.3278 10.8556 71.47 10.4802 71.47 10.0513C71.47 9.35431 72.3278 8.6573 73.4001 8.6573C74.3652 8.6573 75.2231 9.40792 75.8664 10.2658C75.3303 10.6411 74.4724 10.8556 73.5074 10.8556Z"
            fill="#121921" />
        <path
            d="M10.2406 13.8578C10.5623 13.697 10.7768 13.5361 10.884 13.4289L11.581 10.212C11.581 7.20948 10.2406 4.68954 8.31045 4.68954C6.54113 4.68954 5.4152 6.9414 5.4152 9.24688C5.4152 10.909 6.21943 12.1421 7.72067 12.1421C8.73937 12.1421 9.38276 11.7132 9.81169 11.0698L10.2406 9.51496C10.6159 10.1047 10.884 10.7481 11.0449 11.3379C10.6159 11.8204 9.70446 12.4102 7.61344 13.0536L7.4526 13.2144L6.21943 15.3591L6.38028 15.6272C8.36406 15.7344 10.5623 15.9489 11.5274 16.1097C10.8304 16.6995 8.20322 17.9863 5.4152 17.9863C1.50124 17.9863 0.697005 16.1097 0.697005 14.2331C0.697005 12.3566 1.44763 10.6409 1.44763 10.6409L1.17955 10.5337C0.268079 12.2494 0 14.0723 0 15.6808C0 18.0935 1.0187 21.096 4.82542 21.096C8.1496 21.096 10.6695 19.702 11.4202 18.8441C11.7955 17.6646 12.1708 15.8416 12.1708 15.3055C12.1708 14.5548 11.3665 14.1259 10.2406 13.8578ZM7.61344 9.56857C6.38028 9.56857 5.68327 9.19326 5.68327 8.81795C5.68327 8.17456 6.48751 7.47756 7.50621 7.47756C8.52491 7.47756 9.27553 8.17456 9.91892 9.03241C9.38276 9.40773 8.57853 9.56857 7.61344 9.56857Z"
            fill="#121921" />
        <path d="M58.4413 3.99251V17.879H58.7094L60.4251 12.1957V1.47257H60.157L58.4413 3.99251Z"
            fill="#121921" />
        <path
            d="M44.3403 25.1706C44.0186 25.6532 43.5897 25.8676 42.9999 25.8676C42.0884 25.8676 41.4451 25.3315 41.4451 24.1519C41.4451 22.9724 42.0885 22.3826 43.0535 22.3826C43.7505 22.3826 44.1258 22.6507 44.3403 23.1869L43.8042 23.5085C43.6433 23.1332 43.4288 22.9188 43.0535 22.9188C42.4638 22.9188 42.0884 23.4013 42.0884 24.1519C42.0884 24.9026 42.4101 25.3851 43.0535 25.3851C43.4288 25.3851 43.6969 25.2243 43.9114 24.8489L44.3403 25.1706Z"
            fill="#121921" />
        <path
            d="M45.0373 24.5273V22.4899H45.6806V24.4201C45.6806 25.0635 45.9487 25.3852 46.4849 25.3852C47.0747 25.3852 47.2891 25.1171 47.2891 24.4201V22.4899H47.9325V24.5273C47.9325 25.546 47.2891 25.8677 46.4849 25.8677C45.6806 25.8677 45.0373 25.5997 45.0373 24.5273Z"
            fill="#121921" />
        <path d="M49.5947 22.4899V25.278H51.2568V25.8141H49.0049V22.4899H49.5947Z" fill="#121921" />
        <path d="M52.329 25.8141V23.0261H51.2031V22.4899H54.0983V23.0261H52.9724V25.8141H52.329Z"
            fill="#121921" />
        <path
            d="M54.6346 24.5273V22.4899H55.278V24.4201C55.278 25.0635 55.5461 25.3852 56.0822 25.3852C56.672 25.3852 56.8864 25.1171 56.8864 24.4201V22.4899H57.5298V24.5273C57.5298 25.546 56.8864 25.8677 56.0822 25.8677C55.278 25.8677 54.581 25.5997 54.6346 24.5273Z"
            fill="#121921" />
        <path
            d="M60.5322 25.8141C60.425 25.7069 60.425 25.5997 60.3713 25.4388L60.2641 25.0099C60.2105 24.6882 60.0496 24.581 59.6743 24.581H59.1382V25.8141H58.4948V22.4899H59.7816C60.5858 22.4899 61.0147 22.8116 61.0147 23.5086C61.0147 24.0448 60.6394 24.3129 60.1569 24.3129C60.5322 24.3129 60.7467 24.4737 60.8003 24.849L60.9611 25.3852C61.0147 25.546 61.0683 25.6533 61.1756 25.8141H60.5322ZM59.1918 24.0448H59.7816C60.2641 24.0448 60.425 23.884 60.425 23.5086C60.425 23.1333 60.2105 22.9725 59.7816 22.9725H59.1918V24.0448Z"
            fill="#121921" />
        <path
            d="M65.036 25.8141H64.339L64.0173 25.0635H62.516L62.1944 25.8141H61.551L62.8914 22.4899H63.642L65.036 25.8141ZM62.7841 24.5273H63.9101L63.6956 23.9376C63.4275 23.2942 63.3739 22.9725 63.3739 22.9725C63.3739 22.9725 63.3203 23.3478 63.0522 23.9376L62.7841 24.5273Z"
            fill="#121921" />
        <path d="M66.3228 22.4899V25.278H67.9849V25.8141H65.7331V22.4899H66.3228Z" fill="#121921" />
        <path
            d="M71.3627 25.8141H70.2904V22.4899H71.4163C72.435 22.4899 73.1856 22.9725 73.1856 24.0984C73.132 25.278 72.3814 25.7605 71.3627 25.8141ZM71.3627 25.278C72.1133 25.278 72.4886 24.9563 72.4886 24.152C72.4886 23.2942 72.0597 23.0261 71.4163 23.0261H70.9338V25.3316H71.3627V25.278Z"
            fill="#121921" />
        <path
            d="M76.4561 25.8141H74.097V22.4899H76.4561V23.0261H74.7404V23.9376H76.2417V24.4737H74.7404V25.3316H76.4561V25.8141Z"
            fill="#121921" />
        <path
            d="M76.9388 22.4903H77.6358L78.2792 24.3133C78.4936 24.9566 78.5472 25.332 78.5472 25.332C78.5472 25.332 78.6008 24.9566 78.8153 24.3133L79.4587 22.4367H80.1021L78.8153 25.7609H78.0647L76.9388 22.4903Z"
            fill="#121921" />
        <path
            d="M83.2655 25.8141H80.9064V22.4899H83.2655V23.0261H81.5498V23.9376H83.051V24.4737H81.5498V25.3316H83.2655V25.8141Z"
            fill="#121921" />
        <path d="M84.9276 22.4899V25.278H86.5897V25.8141H84.3378V22.4899H84.9276Z" fill="#121921" />
        <path
            d="M87.0185 24.1519C87.0185 23.026 87.6619 22.3826 88.5734 22.3826C89.5385 22.3826 90.1283 23.026 90.1283 24.1519C90.1283 25.2779 89.4849 25.8676 88.5734 25.8676C87.6619 25.8676 87.0185 25.2779 87.0185 24.1519ZM87.6619 24.1519C87.6619 24.9562 87.9836 25.3851 88.5734 25.3851C89.1632 25.3851 89.4849 24.9562 89.4849 24.1519C89.4849 23.3477 89.1632 22.9188 88.5734 22.9188C88.0372 22.9188 87.6619 23.3477 87.6619 24.1519Z"
            fill="#121921" />
        <path
            d="M91.147 25.8141V22.4899H92.3265C93.238 22.4899 93.7205 22.8116 93.7205 23.6159C93.7205 24.4201 93.1844 24.7954 92.3265 24.7954H91.7904V25.7605H91.147V25.8141ZM91.7904 24.3129H92.2729C92.8091 24.3129 93.0771 24.152 93.0771 23.6159C93.0771 23.1869 92.8091 22.9725 92.2729 22.9725H91.7904V24.3129Z"
            fill="#121921" />
        <path
            d="M96.026 25.2243L95.4362 24.0448C95.2217 23.6159 95.1681 23.2942 95.1681 23.2942C95.1681 23.2942 95.1681 23.5623 95.1681 24.0448V25.8141H94.5247V22.4899H95.2753L96.026 24.0984C96.1868 24.4201 96.2404 24.6346 96.2404 24.6346C96.2404 24.6346 96.294 24.4201 96.4549 24.0984L97.2055 22.4899H97.9025V25.8141H97.2591V24.0448C97.2591 23.6159 97.3127 23.2942 97.3127 23.2942C97.3127 23.2942 97.2591 23.5623 97.0447 24.0448L96.4549 25.2243H96.026Z"
            fill="#121921" />
        <path
            d="M101.548 25.8141H99.1892V22.4899H101.548V23.0261H99.8326V23.9376H101.334V24.4737H99.8326V25.3316H101.548V25.8141Z"
            fill="#121921" />
        <path
            d="M104.497 24.206C104.765 24.635 104.926 24.903 104.926 24.903C104.926 24.903 104.926 24.3669 104.926 23.8843V22.4367H105.57V25.7609H104.926L103.639 24.0452C103.318 23.6699 103.157 23.2946 103.157 23.2946C103.157 23.2946 103.211 23.7771 103.211 24.3133V25.7609H102.567V22.4367H103.264L104.497 24.206Z"
            fill="#121921" />
        <path d="M107.392 25.8141V23.0261H106.266V22.4899H109.162V23.0261H108.036V25.8141H107.392Z"
            fill="#121921" />
        <path
            d="M111.36 25.8141V22.4899H113.612V23.0261H112.003V23.9912H113.397V24.5273H112.003V25.8141H111.36Z"
            fill="#121921" />
        <path
            d="M114.309 24.5273V22.4899H114.952V24.4201C114.952 25.0635 115.22 25.3852 115.756 25.3852C116.293 25.3852 116.561 25.1171 116.561 24.4201V22.4899H117.204V24.5273C117.204 25.546 116.561 25.8677 115.756 25.8677C115.006 25.8677 114.309 25.5997 114.309 24.5273Z"
            fill="#121921" />
        <path
            d="M120.207 24.206C120.475 24.635 120.636 24.903 120.636 24.903C120.636 24.903 120.636 24.3669 120.636 23.8843V22.4367H121.279V25.7609H120.636L119.349 24.0452C119.027 23.6699 118.866 23.2946 118.866 23.2946C118.866 23.2946 118.92 23.7771 118.92 24.3133V25.7609H118.276V22.4367H118.973L120.207 24.206Z"
            fill="#121921" />
        <path
            d="M123.531 25.8141H122.459V22.4899H123.585C124.603 22.4899 125.354 22.9725 125.354 24.0984C125.354 25.278 124.603 25.7605 123.531 25.8141ZM123.531 25.278C124.282 25.278 124.657 24.9563 124.657 24.152C124.657 23.2942 124.228 23.0261 123.585 23.0261H123.102V25.3316H123.531V25.278Z"
            fill="#121921" />
    </g>
    <defs>
        <clipPath id="clip0_1992_15728">
            <rect width="152.966" height="25.7356" fill="white" transform="translate(0 0.132208)" />
        </clipPath>
    </defs>
</svg>